<?xml version="1.0" encoding="utf-8"?>
<svg id="master-artboard" viewBox="0 0 1400 980" xmlns="http://www.w3.org/2000/svg" width="1400px" height="980px" version="1.1" style="shape-rendering:geometricPrecision; text-rendering:geometricPrecision; image-rendering:optimizeQuality; fill-rule:evenodd; clip-rule:evenodd"><defs><linearGradient x1="150.54127" y1="356.90431" x2="150.54127" y2="416.66667" gradientUnits="userSpaceOnUse" id="color-1"><stop offset="0" stop-color="#2e4638"/><stop offset="1" stop-color="#2e3846"/></linearGradient></defs>
 
 <metadata id="CorelCorpID_0Corel-Layer"/>
<rect id="ee-background" x="0" y="0" width="1400" height="980" style="fill: white; fill-opacity: 0; pointer-events: none;"/><g transform="matrix(1.9600001220703125, 0, 0, 1.9600001220703125, 209.99998691313522, -0.000002490101906005293)"><g data-paper-data="{'description':'Logo for Traffico\n=================\n\nThis logo was generated by MarkMaker at http://emblemmatic.org/markmaker/ and may be composed of elements designed by others.\n\nThe font is Federo designed by Cyreal and released under the OFL license via Google Fonts: https://www.google.com/fonts/specimen/Federo. The font includes this copyright statement: Copyright (c) 2011 by Olexa M. Volochay | Cyreal.org (a@cyreal.org). All rights reserved.\n\nMarkMaker uses semantic data from the Princeton University WordNet database http://wordnet.princeton.edu and font descriptions from Google Fonts https://www.google.com/fonts.'}" fill="none" fill-rule="nonzero" stroke="none" stroke-width="none" stroke-linecap="butt" stroke-linejoin="miter" stroke-miterlimit="10" stroke-dasharray="" stroke-dashoffset="0" font-family="none" font-weight="none" font-size="none" text-anchor="none" style="mix-blend-mode: normal"><g data-paper-data="{'elementType':'logo'}" fill="url(#color-1)" stroke="none" stroke-width="1" transform="matrix(2.389652729034424, 0, 0, 2.389652729034424, 356.3529954833482, -643.7569998169364)"><g data-paper-data="{'elementType':'text'}" transform="matrix(0.9999999999999999, 0, 0, 0.9999999999999999, -253.11303894202092, -17.318260559190918)"><g data-paper-data="{'baseline':72.607421875,'elementType':'row'}"><g data-paper-data="{'baselineProportion':0.7797587834294704,'fontSize':100,'baseline':72.607421875,'elementType':'word'}"><path d="M180.06206,356.90431v3.07116h-11.28183v43.52906h-6.86311v-43.52906h-11.37584v-3.07116z" data-paper-data="{'elementType':'letter','baseline':72.607421875,'baselineProportion':1,'fontSize':100}"/><path d="M188.37301,376.30279c0.83569,-0.58498 1.57214,-1.06551 2.20936,-1.44157c0.63721,-0.37606 1.20653,-0.67378 1.70794,-0.89314c0.50141,-0.21937 0.96627,-0.37084 1.39456,-0.45441c0.42829,-0.08357 0.85136,-0.12535 1.26921,-0.12535c1.6296,0 2.84135,0.56409 3.63526,1.69227c0.79391,1.12818 1.26398,2.72644 1.41023,4.79478l-5.48422,1.6296c-0.20892,-1.50424 -0.49097,-2.56975 -0.84614,-3.19652c-0.35517,-0.62677 -0.90881,-0.94015 -1.66094,-0.94015c-0.43874,0 -0.95582,0.09402 -1.55125,0.28205c-0.59543,0.18803 -1.2901,0.50141 -2.084,0.94015v24.91404h-6.3617v-29.52079h6.3617z" data-paper-data="{'elementType':'letter','baseline':46.923828125,'baselineProportion':1,'fontSize':100}"/><path d="M215.58102,376.11476c-1.00283,0 -1.87508,0.03134 -2.61676,0.09402c-0.74168,0.06268 -1.41545,0.14625 -2.02133,0.25071c-0.60588,0.10446 -1.16997,0.22459 -1.69227,0.36039c-0.52231,0.1358 -1.04461,0.27682 -1.56692,0.42307l-0.75212,-2.037c1.75495,-0.64766 3.58825,-1.11251 5.49989,-1.39456c1.91164,-0.28205 3.72405,-0.42307 5.43722,-0.42307c2.19369,0 3.99565,0.11491 5.40588,0.34472c1.41023,0.22982 2.5123,0.6111 3.3062,1.14385c0.79391,0.53275 1.34233,1.24309 1.64527,2.13101c0.30294,0.88792 0.45441,2.00044 0.45441,3.33754v23.15909h-10.279c-2.79957,0 -5.18651,-0.29249 -7.16083,-0.87748c-1.97432,-0.58498 -3.58825,-1.37367 -4.84179,-2.36605c-1.25354,-0.99238 -2.1728,-2.13101 -2.75778,-3.41589c-0.58498,-1.28488 -0.87748,-2.63765 -0.87748,-4.05832c0,-1.75495 0.27682,-3.30098 0.83047,-4.63809c0.55365,-1.33711 1.35277,-2.46007 2.39739,-3.36888c1.04461,-0.90881 2.31904,-1.59826 3.82329,-2.06834c1.50424,-0.47008 3.21741,-0.70511 5.1395,-0.70511c1.04461,0 2.23025,0.17758 3.55691,0.53275c1.32666,0.35517 2.59587,0.88792 3.80762,1.59826v-3.9173c0,-0.48052 -0.05223,-0.96627 -0.15669,-1.45724c-0.10446,-0.49097 -0.37606,-0.92971 -0.8148,-1.31621c-0.43874,-0.38651 -1.11251,-0.70511 -2.02133,-0.95582c-0.90881,-0.25071 -2.15713,-0.37606 -3.74494,-0.37606M222.31878,400.93478v-14.50969c-1.00283,-0.60588 -2.04744,-1.05506 -3.13384,-1.34755c-1.0864,-0.29249 -2.2877,-0.43874 -3.60392,-0.43874c-1.04461,0 -1.9691,0.18803 -2.77345,0.56409c-0.80435,0.37606 -1.47813,0.90881 -2.02133,1.59826c-0.5432,0.68945 -0.95582,1.51469 -1.23787,2.47573c-0.28205,0.96104 -0.42307,2.02655 -0.42307,3.19652c0,0.33428 0.01567,0.77301 0.04701,1.31621c0.03134,0.5432 0.1358,1.12818 0.31338,1.75495c0.17758,0.62677 0.44918,1.25876 0.8148,1.89597c0.36561,0.63721 0.8827,1.21698 1.55125,1.73928c0.66855,0.52231 1.51469,0.94538 2.53841,1.26921c1.02372,0.32383 2.27726,0.48575 3.76061,0.48575z" data-paper-data="{'elementType':'letter','baseline':46.923828125,'baselineProportion':1,'fontSize':100}"/><path d="M249.46411,376.8042h-3.9173v38.13885l-6.04831,1.72361v-39.86246h-4.04266v-2.82046h4.04266v-11.68923c0.06268,-0.87748 0.25593,-1.65049 0.57976,-2.31904c0.32383,-0.66855 0.75212,-1.23264 1.28488,-1.69227c0.53275,-0.45963 1.1543,-0.80435 1.86464,-1.03417c0.71034,-0.22982 1.48335,-0.34472 2.31904,-0.34472h5.32753v2.82046c-1.19086,0 -2.13624,0.02089 -2.83613,0.06268c-0.69989,0.04178 -1.23787,0.15669 -1.61393,0.34472c-0.37606,0.18803 -0.61632,0.45963 -0.72078,0.8148c-0.10446,0.35517 -0.15669,0.84614 -0.15669,1.47291v11.56388h3.9173z" data-paper-data="{'elementType':'letter','baseline':72.607421875,'baselineProportion':0.7797587834294704,'fontSize':100}"/><path d="M268.0854,376.8042h-3.9173v38.13885l-6.04831,1.72361v-39.86246h-4.04266v-2.82046h4.04266v-11.68923c0.06268,-0.87748 0.25593,-1.65049 0.57976,-2.31904c0.32383,-0.66855 0.75212,-1.23264 1.28488,-1.69227c0.53275,-0.45963 1.1543,-0.80435 1.86464,-1.03417c0.71034,-0.22982 1.48335,-0.34472 2.31904,-0.34472h5.32753v2.82046c-1.19086,0 -2.13624,0.02089 -2.83613,0.06268c-0.69989,0.04178 -1.23787,0.15669 -1.61393,0.34472c-0.37606,0.18803 -0.61632,0.45963 -0.72078,0.8148c-0.10446,0.35517 -0.15669,0.84614 -0.15669,1.47291v11.56388h3.9173z" data-paper-data="{'elementType':'letter','baseline':72.607421875,'baselineProportion':0.7797587834294704,'fontSize':100}"/><path d="M282.09994,403.50453h-6.3617v-29.52079h6.3617v29.52079M282.09994,369.03228h-6.3617v-3.72927h6.3617z" data-paper-data="{'elementType':'letter','baseline':59.521484375,'baselineProportion':1,'fontSize':100}"/><path d="M313.38195,378.93521c-1.0864,-0.87748 -2.18324,-1.53558 -3.29053,-1.97432c-1.10729,-0.43874 -2.38172,-0.65811 -3.82329,-0.65811c-1.56692,0 -2.95103,0.30294 -4.15234,0.90881c-1.20131,0.60588 -2.20936,1.4259 -3.02416,2.46007c-0.8148,1.03417 -1.43634,2.23025 -1.86464,3.58825c-0.42829,1.358 -0.64244,2.79957 -0.64244,4.3247c0,0.71034 0.04701,1.53036 0.14102,2.46007c0.09402,0.92971 0.28727,1.89075 0.57976,2.88313c0.29249,0.99238 0.71556,1.96387 1.26921,2.91447c0.55365,0.9506 1.28488,1.80718 2.19369,2.56975c0.90881,0.76257 2.037,1.37367 3.38455,1.8333c1.34755,0.45963 2.95103,0.68945 4.81045,0.68945h4.66942v2.56975h-4.66942c-2.48618,0 -4.67465,-0.19325 -6.5654,-0.57976c-1.89075,-0.38651 -3.53079,-0.92448 -4.92013,-1.61393c-1.38934,-0.68945 -2.54886,-1.51991 -3.47856,-2.4914c-0.92971,-0.97149 -1.67661,-2.04744 -2.2407,-3.22786c-0.56409,-1.18041 -0.96104,-2.43917 -1.19086,-3.77628c-0.22982,-1.33711 -0.34472,-2.72644 -0.34472,-4.16801c0,-1.9012 0.3395,-3.7136 1.0185,-5.43722c0.679,-1.72361 1.69227,-3.2383 3.03983,-4.54407c1.34755,-1.30577 3.01893,-2.34516 5.01415,-3.11817c1.99521,-0.77301 4.31948,-1.15952 6.9728,-1.15952c0.64766,0 1.33711,0.07312 2.06834,0.21937c0.73123,0.14625 1.46246,0.36039 2.19369,0.64244c0.73123,0.28205 1.45724,0.63721 2.17802,1.06551c0.72078,0.42829 1.39456,0.92448 2.02133,1.48857z" data-paper-data="{'elementType':'letter','baseline':46.923828125,'baselineProportion':1,'fontSize':100}"/><path d="M334.04023,373.38831c2.1519,0 4.16801,0.40218 6.04831,1.20653c1.8803,0.80435 3.51513,1.9012 4.90446,3.29053c1.38934,1.38934 2.48096,3.01893 3.27486,4.88879c0.79391,1.86986 1.19086,3.85985 1.19086,5.96997c0,2.13101 -0.39695,4.13145 -1.19086,6.00131c-0.79391,1.86986 -1.88553,3.49946 -3.27486,4.88879c-1.38934,1.38934 -3.02416,2.48618 -4.90446,3.29053c-1.8803,0.80435 -3.89641,1.20653 -6.04831,1.20653c-2.11012,0 -4.08966,-0.40218 -5.93863,-1.20653c-1.84897,-0.80435 -3.46289,-1.9012 -4.84179,-3.29053c-1.37889,-1.38934 -2.47051,-3.01893 -3.27486,-4.88879c-0.80435,-1.86986 -1.20653,-3.87029 -1.20653,-6.00131c0,-2.11012 0.40218,-4.10011 1.20653,-5.96997c0.80435,-1.86986 1.89597,-3.49946 3.27486,-4.88879c1.37889,-1.38934 2.99282,-2.48618 4.84179,-3.29053c1.84897,-0.80435 3.82851,-1.20653 5.93863,-1.20653M333.97755,376.24011c-1.6296,0 -3.00326,0.31338 -4.121,0.94015c-1.11774,0.62677 -2.02133,1.50424 -2.71077,2.63243c-0.68945,1.12818 -1.18564,2.46529 -1.48857,4.01132c-0.30294,1.54603 -0.45441,3.22786 -0.45441,5.04548c0,1.79674 0.15669,3.45767 0.47008,4.98281c0.31338,1.52514 0.8148,2.84657 1.50424,3.96431c0.68945,1.11774 1.59304,1.98999 2.71077,2.61676c1.11774,0.62677 2.48096,0.94015 4.08966,0.94015c1.60871,0 2.97715,-0.31338 4.10533,-0.94015c1.12818,-0.62677 2.05267,-1.49902 2.77345,-2.61676c0.72078,-1.11774 1.24309,-2.43917 1.56692,-3.96431c0.32383,-1.52514 0.48575,-3.18607 0.48575,-4.98281c0,-1.81763 -0.16192,-3.49946 -0.48575,-5.04548c-0.32383,-1.54603 -0.84614,-2.88313 -1.56692,-4.01132c-0.72078,-1.12818 -1.64527,-2.00566 -2.77345,-2.63243c-1.12818,-0.62677 -2.49663,-0.94015 -4.10533,-0.94015z" data-paper-data="{'elementType':'letter','baseline':46.923828125,'baselineProportion':0.9796126401630989,'fontSize':100}"/></g></g></g></g><g data-paper-data="{'elementType':'emblem'}" fill="#2e4646" stroke="none" stroke-width="1" transform="matrix(1.0151014328002932, 0, 0, 1.0151014328002932, -236.37025424212345, 15.393720291125149)"><g data-paper-data="{'baselineProportion':1,'fontSize':100,'baseline':72.607421875,'elementType':'word'}"><path d="M329.56698,83.33333v16.55534h-60.81553v234.64658h-36.99611v-234.64658h-61.32232v-16.55534z" data-paper-data="{'elementType':'letter','baseline':72.607421875,'baselineProportion':1,'fontSize':100}"/></g></g><path d="M 278.9748229980469 303.5228576660156" style="fill-opacity: 1; stroke: rgb(46, 70, 70); stroke-opacity: 1; stroke-width: 3.5; paint-order: stroke;"/></g></g></svg>